#!OML:ASF H:\Terrain\Patient Classification 1\Terrain2\Thursday\justin.ASF
:FULLY-SPECIFIED
:DEGREES
3099
root -4.72696 17.7152 -9.03228 130.511 93.9727 -594.316
lowerback 6.49625 -2.09554 2.96548
upperback 2.76168 -2.351 5.50517
thorax -0.676334 -1.10582 4.19319
lowerneck -13.084 -4.4243 -9.53345
upperneck 34.7755 -4.13859 4.09302
head 14.4819 -2.10913 2.78341
rclavicle -1.23246e-014 9.38264e-014
rhumerus -27.4463 -12.7185 -74.4552
rradius 29.502
rwrist -11.3909
rhand -20.9923 12.1102
rfingers 7.12502
rthumb 5.38181 -17.8014
lclavicle -1.23246e-014 9.38264e-014
lhumerus -33.1029 7.27593 84.1653
lradius 32.2835
lwrist -0.236894
lhand -12.5113 19.256
lfingers 7.12502
lthumb 13.5642 48.7942
rfemur -19.0575 -6.41405 25.857
rtibia 26.5993
rfoot -11.1463 8.12072
rtoes 16.9123
lfemur -6.35234 0.576737 -17.0949
ltibia 50.143
lfoot 20.7635 -7.54206
ltoes 21.9663
3100
root -4.63377 17.7216 -9.01972 125.593 94.1659 -599.165
lowerback 6.51527 -2.025 3.47837
upperback 2.78371 -2.21753 5.54812
thorax -0.688893 -1.03192 3.94094
lowerneck -13.0165 -4.54046 -9.58013
upperneck 34.7808 -4.33685 4.20697
head 14.4921 -2.18296 2.80765
rclavicle 0 1.74931e-014
rhumerus -27.4796 -12.8898 -74.4348
rradius 29.7432
rwrist -11.3011
rhand -20.6979 12.1783
rfingers 7.12502
rthumb 5.66607 -17.726
lclavicle 0 1.74931e-014
lhumerus -32.9202 7.22547 83.987
lradius 32.5643
lwrist 0.154501
lhand -13.3311 20.2155
lfingers 7.12502
lthumb 12.774 49.8048
rfemur -18.3428 -5.72488 26.1498
rtibia 26.2099
rfoot -11.2402 7.31728
rtoes 16.1641
lfemur -7.61497 1.05208 -16.4856
ltibia 52.4367
lfoot 20.1267 -7.36486
ltoes 20.7972
3101
root -4.54114 17.7284 -9.00675 122.722 94.0466 -601.882
lowerback 6.59835 -2.00938 3.51058
upperback 2.81374 -2.18559 5.59503
thorax -0.704648 -1.01416 3.97241
lowerneck -13.0263 -4.57969 -9.84672
upperneck 34.9661 -4.34724 4.34163
head 14.5966 -2.20112 2.915
rclavicle 2.70347e-014 1.90833e-014
rhumerus -27.4908 -12.6352 -74.3023
rradius 30.0927
rwrist -11.1359
rhand -20.53 11.8981
rfingers 7.12502
rthumb 5.82814 -18.0017
lclavicle 2.70347e-014 1.90833e-014
lhumerus -32.816 7.25995 83.8309
lradius 32.9198
lwrist 0.810614
lhand -13.3054 20.2074
lfingers 7.12502
lthumb 12.7988 49.795
rfemur -17.4948 -5.38854 26.0494
rtibia 25.6825
rfoot -11.3167 6.81113
rtoes 16.2071
lfemur -8.84755 1.63779 -16.263
ltibia 54.7731
lfoot 18.7946 -7.3362
ltoes 17.4319
3102
root -4.44564 17.7405 -8.99064 117.917 94.158 -606.463
lowerback 6.66762 -2.01484 3.77369
upperback 2.90929 -2.16539 5.69942
thorax -0.650596 -0.997741 3.93356
lowerneck -13.0487 -4.61235 -9.98533
upperneck 35.1144 -4.34862 4.37024
head 14.6787 -2.21322 2.95606
rclavicle -3.97569e-014 3.18055e-015
rhumerus -27.2615 -12.4276 -74.2267
rradius 30.1345
rwrist -11.0686
rhand -20.6326 11.5122
rfingers 7.12502
rthumb 5.72903 -18.3903
lclavicle -3.97569e-014 3.18055e-015
lhumerus -32.6658 7.58848 83.6331
lradius 33.2639
lwrist 1.16784
lhand -13.2723 20.1109
lfingers 7.12502
lthumb 12.8307 49.6966
rfemur -16.5869 -5.55913 26.2265
rtibia 25.1569
rfoot -11.2795 7.09631
rtoes 18.2355
lfemur -9.98852 2.12792 -15.7681
ltibia 57.0981
lfoot 17.0807 -6.82611
ltoes 13.1962
3103
root -4.34648 17.7382 -8.9804 110.341 94.775 -613.794
lowerback 6.72711 -2.02883 4.68372
upperback 2.99487 -2.10391 5.8979
thorax -0.622183 -0.950645 3.62836
lowerneck -12.9343 -4.68264 -9.87571
upperneck 35.0587 -4.44155 4.2341
head 14.6282 -2.25424 2.86432
rclavicle 3.53837e-014 -2.70347e-014
rhumerus -26.9161 -12.9503 -74.0728
rradius 29.711
rwrist -10.9314
rhand -20.6711 11.5051
rfingers 7.12502
rthumb 5.69187 -18.3985
lclavicle 3.53837e-014 -2.70347e-014
lhumerus -32.6036 7.73453 83.6547
lradius 33.7376
lwrist 1.85055
lhand -14.3956 20.724
lfingers 7.12502
lthumb 11.7477 50.3746
rfemur -15.682 -7.27788 27.2176
rtibia 24.5934
rfoot -11.4894 8.24455
rtoes 15.4943
lfemur -11.1293 2.51729 -14.6793
ltibia 59.502
lfoot 15.0433 -6.08813
ltoes 9.70763
